<svg width="23" height="22" viewBox="0 0 23 22" fill="none" xmlns="http://www.w3.org/2000/svg">
<path fill-rule="evenodd" clip-rule="evenodd" d="M2.21875 10.9997C2.21875 10.8239 2.28859 10.6553 2.41291 10.531C2.53723 10.4067 2.70585 10.3368 2.88166 10.3368L18.5171 10.3368L14.3448 6.16578C14.2203 6.0413 14.1503 5.87248 14.1503 5.69644C14.1503 5.5204 14.2203 5.35157 14.3448 5.2271C14.4692 5.10262 14.6381 5.03269 14.8141 5.03269C14.9901 5.03269 15.159 5.10262 15.2834 5.2271L20.5867 10.5304C20.6485 10.592 20.6975 10.6651 20.7309 10.7457C20.7643 10.8262 20.7815 10.9125 20.7815 10.9997C20.7815 11.0869 20.7643 11.1733 20.7309 11.2538C20.6975 11.3344 20.6485 11.4075 20.5867 11.4691L15.2834 16.7724C15.159 16.8969 14.9901 16.9668 14.8141 16.9668C14.6381 16.9668 14.4692 16.8969 14.3448 16.7724C14.2203 16.6479 14.1503 16.4791 14.1503 16.303C14.1503 16.127 14.2203 15.9582 14.3448 15.8337L18.5171 11.6627L2.88166 11.6627C2.70585 11.6627 2.53723 11.5928 2.41291 11.4685C2.28859 11.3442 2.21875 11.1756 2.21875 10.9997Z" fill="black"/>
</svg>
