<svg width="40" height="40" viewBox="0 0 40 40" fill="none" xmlns="http://www.w3.org/2000/svg">
<rect x="1" y="1" width="38" height="38" rx="19" stroke="#E6E8EC" stroke-width="2"/>
<path fill-rule="evenodd" clip-rule="evenodd" d="M23.7348 22.0909C24.1094 22.4968 24.0841 23.1294 23.6783 23.504L20.1783 26.7348C19.7953 27.0884 19.2048 27.0884 18.8218 26.7348L15.3217 23.504C14.9159 23.1294 14.8906 22.4968 15.2652 22.091C15.6398 21.6851 16.2724 21.6598 16.6783 22.0344L18.5 23.716L18.5 14C18.5 13.4477 18.9477 13 19.5 13C20.0523 13 20.5 13.4477 20.5 14L20.5 23.716L22.3217 22.0344C22.7275 21.6598 23.3602 21.6851 23.7348 22.0909Z" fill="#777E91"/>
</svg>
