<svg width="53" height="53" viewBox="0 0 53 53" fill="none" xmlns="http://www.w3.org/2000/svg">
<rect x="0.838867" y="26.7163" width="36.8126" height="36.8126" rx="18.4063" transform="rotate(-45 0.838867 26.7163)" fill="#FFD67E"/>
<g clip-path="url(#clip0_9823_934)">
<path fill-rule="evenodd" clip-rule="evenodd" d="M21.6175 31.9686C21.518 31.8691 21.4621 31.7342 21.4621 31.5935C21.4621 31.4528 21.518 31.3178 21.6175 31.2183L30.4653 22.3705L25.7439 22.3713C25.603 22.3713 25.4679 22.3153 25.3683 22.2157C25.2687 22.1161 25.2127 21.981 25.2127 21.8401C25.2127 21.6992 25.2687 21.5641 25.3683 21.4645C25.4679 21.3649 25.603 21.3089 25.7439 21.3089L31.746 21.3089C31.8158 21.3088 31.8849 21.3225 31.9494 21.3492C32.0138 21.3758 32.0724 21.415 32.1218 21.4643C32.1711 21.5136 32.2102 21.5722 32.2369 21.6367C32.2636 21.7012 32.2773 21.7703 32.2772 21.8401L32.2772 27.8422C32.2772 27.983 32.2212 28.1182 32.1216 28.2178C32.022 28.3174 31.8869 28.3733 31.746 28.3733C31.6051 28.3733 31.47 28.3174 31.3704 28.2178C31.2708 28.1182 31.2148 27.983 31.2148 27.8422L31.2156 23.1208L22.3678 31.9686C22.2683 32.0681 22.1333 32.124 21.9926 32.124C21.8519 32.124 21.717 32.0681 21.6175 31.9686Z" fill="black"/>
</g>
<defs>
<clipPath id="clip0_9823_934">
<rect width="16.9764" height="16.9764" fill="white" transform="translate(26.8694 38.7202) rotate(-135)"/>
</clipPath>
</defs>
</svg>
