<svg width="141" height="54" viewBox="0 0 141 54" fill="none" xmlns="http://www.w3.org/2000/svg">
<g clip-path="url(#clip0_3735_135)">
<path d="M19.163 23.9136L18.2969 25.3348L19.1438 23.9136H19.163Z" fill="#1F1F1F"/>
<path d="M32.2891 53.964L33.637 51.3817C35.9234 47.0009 35.5651 41.688 32.7119 37.6624H32.5388L22.6059 53.964H0.853516L18.2882 25.3487L18.2967 25.3347L19.1628 23.9139H32.4122V32.4337L55.7822 18.8316L32.4122 5.22873V13.7493H19.1436L10.9496 0H47.29C57.5549 0 66.0495 8.50072 66.0179 18.8908C66.0022 24.0677 63.9232 28.7524 60.5694 32.147C58.722 34.0161 56.4891 35.4946 54.0003 36.448L54.6186 37.3497C57.2371 41.1665 57.6561 46.1035 55.7187 50.3161L54.0411 53.964" fill="#FFD67E"/>
</g>
<path d="M72.1662 36.8095L72.5792 34.2683H83.5062L83.0933 36.8095H72.1662ZM75.5333 17.1154L75.9462 14.5742H86.8733L86.4286 17.1154H75.5333ZM74.0086 25.9778L74.4215 23.4683H84.7451L84.3004 25.9778H74.0086ZM74.4533 14.5742H77.1533L73.3098 36.8095H70.7051L74.4533 14.5742Z" fill="black"/>
<path d="M87.7684 22.1978H90.532L92.9461 32.426L98.5049 22.1978H101.395L92.1202 37.9531L87.7684 22.1978Z" fill="black"/>
<path d="M106.704 37.1272C105.497 37.1272 104.438 36.8625 103.527 36.3331C102.617 35.8036 101.907 35.0413 101.399 34.046C100.891 33.0507 100.637 31.8542 100.637 30.4566C100.637 29.3131 100.838 28.233 101.24 27.2166C101.664 26.1789 102.235 25.2683 102.955 24.4848C103.697 23.6801 104.554 23.0448 105.528 22.5789C106.524 22.113 107.604 21.8801 108.768 21.8801C109.997 21.8801 111.045 22.1236 111.913 22.6107C112.803 23.0978 113.491 23.8178 113.978 24.7707C114.465 25.7025 114.708 26.8672 114.708 28.2648C114.708 28.5825 114.666 28.9319 114.581 29.3131C114.518 29.6942 114.444 29.9695 114.359 30.1389H102.193V27.9789H112.675L111.691 29.4401C111.797 29.186 111.892 28.9213 111.977 28.646C112.061 28.3495 112.104 28.053 112.104 27.7566C112.104 26.9942 111.966 26.3483 111.691 25.8189C111.437 25.2683 111.055 24.8448 110.547 24.5483C110.039 24.2519 109.393 24.1036 108.61 24.1036C107.805 24.1036 107.064 24.273 106.386 24.6119C105.73 24.9295 105.158 25.3742 104.671 25.946C104.184 26.5178 103.802 27.1848 103.527 27.9472C103.273 28.6883 103.146 29.4719 103.146 30.2978C103.146 31.166 103.284 31.9389 103.559 32.6166C103.834 33.2942 104.258 33.8236 104.83 34.2048C105.401 34.5648 106.132 34.7448 107.021 34.7448C108.017 34.7448 108.917 34.5013 109.721 34.0142C110.547 33.506 111.225 32.8707 111.754 32.1083L113.755 33.4107C112.993 34.4907 112.019 35.3801 110.833 36.0789C109.647 36.7778 108.271 37.1272 106.704 37.1272Z" fill="black"/>
<path d="M127.097 27.9154C127.181 27.2589 127.171 26.6554 127.065 26.1048C126.959 25.5542 126.726 25.1095 126.366 24.7707C126.006 24.4319 125.477 24.2625 124.778 24.2625C124.058 24.2625 123.391 24.4213 122.777 24.7389C122.184 25.0354 121.686 25.4483 121.284 25.9778C120.903 26.5072 120.659 27.1107 120.553 27.7883L118.965 36.8095H116.424L118.965 22.1978H121.474L121.125 24.3895C121.675 23.5848 122.321 22.9707 123.063 22.5472C123.804 22.1025 124.661 21.8801 125.635 21.8801C126.715 21.8801 127.563 22.1448 128.177 22.6742C128.812 23.2036 129.246 23.9025 129.479 24.7707C129.733 25.6389 129.786 26.5813 129.638 27.5978L128.05 36.8095H125.572L127.097 27.9154Z" fill="black"/>
<path d="M133.03 22.1978H140.145L139.732 24.5801H132.585L133.03 22.1978ZM136.111 17.1154H138.684L135.253 36.8095H132.808L136.111 17.1154Z" fill="black"/>
<path d="M71.2734 48.3691L71.7959 47.3495H75.6575L75.8614 48.3691H71.2734ZM74.2811 44.1379L72.2165 47.6809L72.0763 47.9103L70.2411 51.0454H69.0176L74.6761 41.6527L77.0849 51.0454H75.9251L75.1859 47.9867L75.1349 47.7318L74.2811 44.1379Z" fill="black"/>
<path d="M82.9683 51.4277H83.9752C83.9582 51.7166 84.0006 51.98 84.1026 52.2179C84.2046 52.4558 84.3702 52.647 84.5996 52.7914C84.8375 52.9359 85.1349 53.0081 85.4918 53.0081C85.8401 53.0081 86.1715 52.9231 86.4858 52.7532C86.8002 52.5833 87.0636 52.3369 87.276 52.014C87.4969 51.6996 87.6371 51.3343 87.6966 50.918L88.6906 45.1829H89.6974L88.7161 50.918C88.6311 51.5127 88.4357 52.0395 88.1299 52.4983C87.8325 52.9571 87.4544 53.3139 86.9956 53.5688C86.5453 53.8322 86.0398 53.9639 85.479 53.9639C84.9352 53.9639 84.4637 53.8535 84.0644 53.6326C83.6735 53.4201 83.3804 53.1228 83.185 52.7404C82.9896 52.3581 82.9174 51.9205 82.9683 51.4277ZM83.4144 48.1142C83.4994 47.5364 83.699 47.0181 84.0134 46.5593C84.3362 46.092 84.7313 45.7225 85.1986 45.4506C85.6744 45.1787 86.1885 45.047 86.7407 45.0555C87.1315 45.0555 87.4587 45.1405 87.722 45.3104C87.9939 45.4803 88.2063 45.7097 88.3593 45.9986C88.5122 46.2875 88.6099 46.6146 88.6524 46.9799C88.7034 47.3368 88.7034 47.7149 88.6524 48.1142C88.5929 48.5305 88.4825 48.9256 88.321 49.2994C88.1596 49.6648 87.9557 49.9876 87.7093 50.268C87.4629 50.5484 87.174 50.7693 86.8427 50.9307C86.5198 51.0836 86.163 51.1601 85.7721 51.1601C85.2199 51.1601 84.7526 51.0242 84.3702 50.7523C83.9964 50.4719 83.7245 50.1023 83.5546 49.6435C83.3847 49.1762 83.3379 48.6664 83.4144 48.1142ZM84.434 48.1142C84.383 48.488 84.4085 48.8364 84.5104 49.1592C84.6124 49.4736 84.7866 49.7285 85.0329 49.9239C85.2878 50.1108 85.6022 50.2043 85.976 50.2043C86.2309 50.2043 86.4773 50.1533 86.7152 50.0513C86.9616 49.9409 87.1868 49.7922 87.3907 49.6053C87.5946 49.4099 87.7645 49.1847 87.9005 48.9298C88.0449 48.6749 88.1426 48.4031 88.1936 48.1142C88.2361 47.8338 88.2318 47.5704 88.1808 47.324C88.1299 47.0776 88.0407 46.8567 87.9132 46.6613C87.7858 46.4659 87.6243 46.313 87.4289 46.2025C87.242 46.0836 87.0211 46.0198 86.7662 46.0113C86.3924 46.0028 86.0398 46.092 85.7084 46.279C85.3771 46.4574 85.0967 46.708 84.8673 47.0309C84.6464 47.3538 84.5019 47.7149 84.434 48.1142Z" fill="black"/>
<path d="M98.2711 51.1729C97.7868 51.1729 97.362 51.0667 96.9967 50.8542C96.6313 50.6418 96.3467 50.336 96.1428 49.9366C95.9389 49.5373 95.8369 49.0573 95.8369 48.4965C95.8369 48.0377 95.9176 47.6044 96.0791 47.1966C96.249 46.7803 96.4784 46.4149 96.7673 46.1005C97.0646 45.7777 97.4087 45.5228 97.7996 45.3359C98.1989 45.149 98.6322 45.0555 99.0995 45.0555C99.5923 45.0555 100.013 45.1532 100.361 45.3486C100.718 45.544 100.994 45.8329 101.19 46.2152C101.385 46.5891 101.483 47.0564 101.483 47.6171C101.483 47.7446 101.466 47.8848 101.432 48.0377C101.406 48.1906 101.377 48.3011 101.343 48.3691H96.4614V47.5024H100.667L100.272 48.0887C100.314 47.9867 100.353 47.8805 100.387 47.7701C100.421 47.6511 100.438 47.5322 100.438 47.4132C100.438 47.1074 100.382 46.8482 100.272 46.6358C100.17 46.4149 100.017 46.245 99.8132 46.126C99.6093 46.0071 99.3501 45.9476 99.0358 45.9476C98.7129 45.9476 98.4155 46.0156 98.1437 46.1515C97.8803 46.279 97.6509 46.4574 97.4555 46.6868C97.26 46.9162 97.1071 47.1838 96.9967 47.4897C96.8947 47.7871 96.8437 48.1014 96.8437 48.4328C96.8437 48.7811 96.899 49.0913 97.0094 49.3631C97.1199 49.635 97.2898 49.8474 97.5192 50.0004C97.7486 50.1448 98.0417 50.217 98.3986 50.217C98.7979 50.217 99.159 50.1193 99.4818 49.9239C99.8132 49.72 100.085 49.4651 100.297 49.1592L101.1 49.6818C100.795 50.1151 100.404 50.4719 99.9279 50.7523C99.4521 51.0327 98.8998 51.1729 98.2711 51.1729Z" fill="black"/>
<path d="M111.806 47.477C111.84 47.2136 111.836 46.9714 111.793 46.7505C111.751 46.5296 111.657 46.3512 111.513 46.2152C111.368 46.0793 111.156 46.0113 110.875 46.0113C110.587 46.0113 110.319 46.0751 110.073 46.2025C109.835 46.3214 109.635 46.4871 109.474 46.6995C109.321 46.9119 109.223 47.1541 109.18 47.426L108.543 51.0454H107.524L108.543 45.1829H109.55L109.41 46.0623C109.631 45.7395 109.89 45.4931 110.187 45.3231C110.485 45.1447 110.829 45.0555 111.22 45.0555C111.653 45.0555 111.993 45.1617 112.239 45.3741C112.494 45.5865 112.668 45.8669 112.762 46.2152C112.864 46.5636 112.885 46.9417 112.825 47.3495L112.188 51.0454H111.194L111.806 47.477Z" fill="black"/>
<path d="M120.418 48.1142C120.367 48.471 120.393 48.8109 120.495 49.1337C120.605 49.4481 120.788 49.703 121.043 49.8984C121.298 50.0938 121.616 50.1958 121.999 50.2043C122.449 50.2128 122.865 50.1108 123.248 49.8984C123.638 49.686 123.944 49.4396 124.165 49.1592L123.987 50.4209C123.723 50.6503 123.409 50.833 123.044 50.9689C122.687 51.0964 122.309 51.1601 121.909 51.1601C121.349 51.1601 120.864 51.0199 120.457 50.7395C120.057 50.4592 119.764 50.0896 119.577 49.6308C119.39 49.1635 119.331 48.6579 119.399 48.1142C119.475 47.5449 119.671 47.0309 119.985 46.5721C120.308 46.1133 120.712 45.7479 121.196 45.4761C121.68 45.1957 122.211 45.0555 122.789 45.0555C123.163 45.0555 123.515 45.1192 123.847 45.2467C124.187 45.3741 124.467 45.561 124.688 45.8074L124.509 47.0819C124.373 46.759 124.144 46.4999 123.821 46.3045C123.507 46.109 123.137 46.0113 122.712 46.0113C122.322 46.0113 121.96 46.109 121.629 46.3045C121.306 46.4914 121.039 46.742 120.826 47.0564C120.614 47.3708 120.478 47.7233 120.418 48.1142Z" fill="black"/>
<path d="M136.194 45.1829L130.995 53.8365H129.835L132.052 50.1788L130.727 45.1829H131.849L132.919 49.771L132.511 49.7072L135.035 45.1829H136.194Z" fill="black"/>
<defs>
<clipPath id="clip0_3735_135">
<rect width="65.164" height="53.964" fill="white" transform="translate(0.853516)"/>
</clipPath>
</defs>
</svg>
