<svg width="35" height="34" viewBox="0 0 35 34" fill="none" xmlns="http://www.w3.org/2000/svg">
<g clip-path="url(#clip0_9823_707)">
<path d="M33.472 8.62285C32.5795 5.33773 29.1629 1.92047 25.8771 1.02797C23.8624 0.525937 21.1636 0.00863281 17.5 0C13.8364 0.00863281 11.1376 0.525937 9.12285 1.02797C5.83773 1.92047 2.42047 5.33707 1.52797 8.62285C1.02594 10.6376 0.508633 13.3364 0.5 17C0.508633 20.6636 1.02594 23.3624 1.52797 25.3771C2.42047 28.6629 5.83773 32.0795 9.12285 32.972C11.1376 33.4741 13.8377 33.9914 17.5 34C21.163 33.9914 23.8624 33.4741 25.8771 32.972C29.1629 32.0795 32.5795 28.6629 33.472 25.3771C33.9741 23.3624 34.4914 20.6623 34.5 17C34.4914 13.3364 33.9741 10.6376 33.472 8.62285Z" fill="#FEF3C7"/>
<path d="M17.5 5.71094C15.2672 5.71094 13.0846 6.37303 11.2281 7.61349C9.37166 8.85395 7.92471 10.6171 7.07027 12.6799C6.21583 14.7427 5.99227 17.0125 6.42786 19.2024C6.86345 21.3923 7.93863 23.4038 9.51743 24.9826C11.0962 26.5614 13.1078 27.6366 15.2976 28.0721C17.4875 28.5077 19.7573 28.2842 21.8201 27.4297C23.8829 26.5753 25.6461 25.1283 26.8865 23.2719C28.127 21.4154 28.7891 19.2328 28.7891 17C28.7891 14.006 27.5997 11.1345 25.4826 9.01743C23.3655 6.90032 20.4941 5.71094 17.5 5.71094Z" fill="#FDE68A"/>
<path d="M23.9408 15.1306L17.1521 22.2573C16.9672 22.4514 16.745 22.6063 16.4989 22.7125C16.2528 22.8187 15.9878 22.8742 15.7197 22.8756H15.7111C15.4446 22.8755 15.1808 22.8221 14.9353 22.7183C14.6898 22.6145 14.4677 22.4625 14.282 22.2713L10.6808 18.5612C10.4849 18.3766 10.3285 18.1544 10.2209 17.9078C10.1133 17.6611 10.0568 17.3953 10.0547 17.1262C10.0527 16.8572 10.1052 16.5905 10.209 16.3423C10.3129 16.094 10.4659 15.8694 10.6589 15.682C10.852 15.4945 11.081 15.3481 11.3321 15.2516C11.5833 15.155 11.8514 15.1104 12.1203 15.1203C12.3891 15.1302 12.6532 15.1945 12.8966 15.3092C13.14 15.424 13.3576 15.5869 13.5363 15.788L15.6945 18.012L21.0528 12.3847C21.2331 12.1951 21.449 12.0428 21.6881 11.9366C21.9272 11.8304 22.185 11.7724 22.4465 11.7658C22.7081 11.7592 22.9684 11.8042 23.2126 11.8982C23.4568 11.9922 23.6801 12.1334 23.8697 12.3137C24.0594 12.494 24.2116 12.7098 24.3178 12.949C24.424 13.1881 24.4821 13.4458 24.4887 13.7074C24.4953 13.969 24.4503 14.2293 24.3563 14.4735C24.2623 14.7177 24.1211 14.941 23.9408 15.1306Z" fill="#FBBF24"/>
</g>
<defs>
<clipPath id="clip0_9823_707">
<rect width="34" height="34" fill="white" transform="translate(0.5)"/>
</clipPath>
</defs>
</svg>
