<svg width="40" height="40" viewBox="0 0 40 40" fill="none" xmlns="http://www.w3.org/2000/svg">
<rect x="0.5" y="0.5" width="39" height="39" rx="19.5" stroke="#FFD67E"/>
<path fill-rule="evenodd" clip-rule="evenodd" d="M12.125 20C12.125 19.8508 12.1843 19.7078 12.2898 19.6023C12.3952 19.4968 12.5383 19.4375 12.6875 19.4375L25.9546 19.4375L22.4142 15.8983C22.3086 15.7926 22.2493 15.6494 22.2493 15.5C22.2493 15.3506 22.3086 15.2074 22.4142 15.1018C22.5199 14.9961 22.6631 14.9368 22.8125 14.9368C22.9619 14.9368 23.1051 14.9961 23.2107 15.1018L27.7107 19.6018C27.7631 19.654 27.8047 19.7161 27.833 19.7844C27.8614 19.8528 27.876 19.926 27.876 20C27.876 20.074 27.8614 20.1473 27.833 20.2156C27.8047 20.2839 27.7631 20.346 27.7107 20.3983L23.2107 24.8983C23.1051 25.0039 22.9619 25.0632 22.8125 25.0632C22.6631 25.0632 22.5199 25.0039 22.4142 24.8983C22.3086 24.7926 22.2493 24.6494 22.2493 24.5C22.2493 24.3506 22.3086 24.2074 22.4142 24.1018L25.9546 20.5625L12.6875 20.5625C12.5383 20.5625 12.3952 20.5033 12.2898 20.3978C12.1843 20.2923 12.125 20.1492 12.125 20Z" fill="#FFD67E"/>
</svg>
