<svg width="111" height="40" viewBox="0 0 111 40" fill="none" xmlns="http://www.w3.org/2000/svg">
<rect x="1" y="1" width="109" height="38" rx="19" stroke="#E6E8EC" stroke-width="2"/>
<path d="M21.5596 25.1709C24.3076 25.1709 25.9346 23.5439 25.9346 20.8574V19.7227H21.7783V21.2607H23.9248L23.918 21.4043C23.8633 22.6211 22.9404 23.4209 21.5938 23.4209C19.9531 23.4209 18.9141 22.1562 18.9141 20.0166V20.0098C18.9141 17.918 19.8916 16.7148 21.5186 16.7148C22.6328 16.7148 23.4189 17.2686 23.7471 18.2256L23.7744 18.2939H25.8457L25.8252 18.1982C25.4971 16.3457 23.8838 14.9648 21.5117 14.9648C18.6201 14.9648 16.8086 16.8721 16.8086 20.0303V20.0371C16.8086 23.25 18.6133 25.1709 21.5596 25.1709ZM30.4668 25.1504C32.5586 25.1504 33.5703 23.9131 33.7959 22.833L33.8164 22.7578H31.9844L31.9707 22.7988C31.8271 23.209 31.3281 23.6602 30.5078 23.6602C29.4893 23.6602 28.8535 22.9766 28.833 21.8076H33.8779V21.1924C33.8779 18.9775 32.5312 17.5215 30.3848 17.5215C28.2383 17.5215 26.8643 19.0117 26.8643 21.3428V21.3496C26.8643 23.6943 28.2246 25.1504 30.4668 25.1504ZM30.4189 19.0117C31.2461 19.0117 31.8408 19.5381 31.9639 20.5498H28.8535C28.9834 19.5586 29.5986 19.0117 30.4189 19.0117ZM37.8223 25.1504C38.2393 25.1504 38.5605 25.1094 38.7861 25.0752V23.6123C38.6631 23.626 38.5332 23.6465 38.3555 23.6465C37.7539 23.6465 37.4463 23.4141 37.4463 22.7305V19.1758H38.7861V17.6719H37.4463V15.8809H35.4297V17.6719H34.4111V19.1758H35.4297V22.9492C35.4297 24.5215 36.1953 25.1504 37.8223 25.1504ZM43.1953 25H45.1914V19.1758H46.5996V17.6719H45.1436V17.1592C45.1436 16.6328 45.4375 16.3525 46.1006 16.3525C46.2852 16.3525 46.4766 16.3594 46.6133 16.3867V15.0674C46.3809 15.0195 45.9775 14.9854 45.6084 14.9854C43.8789 14.9854 43.1953 15.6484 43.1953 17.084V17.6719H42.1973V19.1758H43.1953V25ZM47.6523 25H49.6484V20.8711C49.6484 19.8389 50.2227 19.2441 51.207 19.2441C51.4941 19.2441 51.7676 19.2852 51.9316 19.3535V17.5967C51.7812 17.5557 51.5762 17.5215 51.3574 17.5215C50.4893 17.5215 49.8672 18.0342 49.6553 18.9229H49.6143V17.6719H47.6523V25ZM55.8418 25.1504C57.9336 25.1504 58.9453 23.9131 59.1709 22.833L59.1914 22.7578H57.3594L57.3457 22.7988C57.2021 23.209 56.7031 23.6602 55.8828 23.6602C54.8643 23.6602 54.2285 22.9766 54.208 21.8076H59.2529V21.1924C59.2529 18.9775 57.9062 17.5215 55.7598 17.5215C53.6133 17.5215 52.2393 19.0117 52.2393 21.3428V21.3496C52.2393 23.6943 53.5996 25.1504 55.8418 25.1504ZM55.7939 19.0117C56.6211 19.0117 57.2158 19.5381 57.3389 20.5498H54.2285C54.3584 19.5586 54.9736 19.0117 55.7939 19.0117ZM63.6211 25.1504C65.7129 25.1504 66.7246 23.9131 66.9502 22.833L66.9707 22.7578H65.1387L65.125 22.7988C64.9814 23.209 64.4824 23.6602 63.6621 23.6602C62.6436 23.6602 62.0078 22.9766 61.9873 21.8076H67.0322V21.1924C67.0322 18.9775 65.6855 17.5215 63.5391 17.5215C61.3926 17.5215 60.0186 19.0117 60.0186 21.3428V21.3496C60.0186 23.6943 61.3789 25.1504 63.6211 25.1504ZM63.5732 19.0117C64.4004 19.0117 64.9951 19.5381 65.1182 20.5498H62.0078C62.1377 19.5586 62.7529 19.0117 63.5732 19.0117ZM73.752 25.1504C74.1689 25.1504 74.4902 25.1094 74.7158 25.0752V23.6123C74.5928 23.626 74.4629 23.6465 74.2852 23.6465C73.6836 23.6465 73.376 23.4141 73.376 22.7305V19.1758H74.7158V17.6719H73.376V15.8809H71.3594V17.6719H70.3408V19.1758H71.3594V22.9492C71.3594 24.5215 72.125 25.1504 73.752 25.1504ZM75.8164 25H77.8125V20.8711C77.8125 19.8389 78.3867 19.2441 79.3711 19.2441C79.6582 19.2441 79.9316 19.2852 80.0957 19.3535V17.5967C79.9453 17.5557 79.7402 17.5215 79.5215 17.5215C78.6533 17.5215 78.0312 18.0342 77.8193 18.9229H77.7783V17.6719H75.8164V25ZM81.9551 16.7285C82.5566 16.7285 83.0215 16.2568 83.0215 15.6895C83.0215 15.1221 82.5566 14.6504 81.9551 14.6504C81.3535 14.6504 80.8887 15.1221 80.8887 15.6895C80.8887 16.2568 81.3535 16.7285 81.9551 16.7285ZM80.957 25H82.9531V17.6719H80.957V25ZM86.4736 25.1162C87.4375 25.1162 88.2168 24.6582 88.6338 23.9062H88.6748V25H90.6709V19.9756C90.6709 18.499 89.4473 17.5215 87.5537 17.5215C85.6191 17.5215 84.457 18.4922 84.3477 19.8457L84.3408 19.9277H86.166L86.1797 19.8662C86.2754 19.3945 86.7266 19.0459 87.4717 19.0459C88.251 19.0459 88.6748 19.4492 88.6748 20.0986V20.5498L86.8633 20.6592C85.0449 20.7754 84.0127 21.5547 84.0127 22.8877V22.9014C84.0127 24.1934 85.0039 25.1162 86.4736 25.1162ZM85.9883 22.7988V22.7852C85.9883 22.2656 86.3916 21.9375 87.1641 21.8896L88.6748 21.7939V22.3203C88.6748 23.0859 88.0186 23.6602 87.123 23.6602C86.4326 23.6602 85.9883 23.3389 85.9883 22.7988ZM92.0107 25H94.0068V15.1357H92.0107V25Z" fill="#23262F"/>
</svg>
