<svg width="36" height="37" viewBox="0 0 36 37" fill="none" xmlns="http://www.w3.org/2000/svg">
<circle cx="18" cy="18.5" r="18" fill="#FFD67E"/>
<path d="M10.7221 23.9576H25.2762C25.7765 23.9576 26.1858 23.5482 26.1858 23.0479C26.1858 22.5476 25.7765 22.1383 25.2762 22.1383H10.7221C10.2218 22.1383 9.8125 22.5476 9.8125 23.0479C9.8125 23.5482 10.2218 23.9576 10.7221 23.9576ZM10.7221 19.4094H25.2762C25.7765 19.4094 26.1858 19.0001 26.1858 18.4998C26.1858 17.9995 25.7765 17.5901 25.2762 17.5901H10.7221C10.2218 17.5901 9.8125 17.9995 9.8125 18.4998C9.8125 19.0001 10.2218 19.4094 10.7221 19.4094ZM9.8125 13.9516C9.8125 14.4519 10.2218 14.8613 10.7221 14.8613H25.2762C25.7765 14.8613 26.1858 14.4519 26.1858 13.9516C26.1858 13.4513 25.7765 13.042 25.2762 13.042H10.7221C10.2218 13.042 9.8125 13.4513 9.8125 13.9516Z" fill="black"/>
</svg>
