<svg width="95" height="37" viewBox="0 0 95 37" fill="none" xmlns="http://www.w3.org/2000/svg">
<g clip-path="url(#clip0_3735_689)">
<path d="M12.4483 16.4136L11.8594 17.3799L12.4352 16.4136H12.4483Z" fill="black"/>
<path d="M21.374 36.8461L22.2905 35.0903C23.8451 32.1116 23.6015 28.4993 21.6615 25.7621H21.5438L14.7901 36.8461H0L11.8544 17.3897L11.8601 17.3801L12.4491 16.4141H21.4577V22.207L37.3477 12.9585L21.4577 3.70947V9.50287H12.436L6.8646 0.154297H31.5736C38.553 0.154297 44.3287 5.9342 44.3073 12.9987C44.2966 16.5187 42.883 19.7039 40.6026 22.012C39.3465 23.2829 37.8283 24.2882 36.1361 24.9364L36.5565 25.5495C38.3369 28.1447 38.6218 31.5015 37.3045 34.3658L36.1638 36.8461" fill="#FFD67E"/>
</g>
<path d="M48.4866 25.1824L48.7673 23.4546H56.197L55.9162 25.1824H48.4866ZM50.7759 11.7918L51.0567 10.064H58.4864L58.184 11.7918H50.7759ZM49.7392 17.8176L50.02 16.1114H57.0393L56.7369 17.8176H49.7392ZM50.0416 10.064H51.8774L49.2641 25.1824H47.4931L50.0416 10.064Z" fill="black"/>
<path d="M59.095 15.2474H60.974L62.6154 22.2019L66.395 15.2474H68.3604L62.0539 25.9599L59.095 15.2474Z" fill="black"/>
<path d="M71.9696 25.3984C71.1489 25.3984 70.429 25.2184 69.8099 24.8585C69.1907 24.4985 68.7084 23.9802 68.3628 23.3034C68.0172 22.6267 67.8445 21.8132 67.8445 20.8629C67.8445 20.0853 67.9812 19.351 68.2548 18.6599C68.5428 17.9544 68.9315 17.3352 69.4211 16.8025C69.925 16.2553 70.5082 15.8234 71.1705 15.5066C71.8472 15.1898 72.5816 15.0315 73.3735 15.0315C74.2086 15.0315 74.9213 15.197 75.5117 15.5282C76.1164 15.8594 76.5844 16.3489 76.9155 16.9969C77.2467 17.6304 77.4123 18.4223 77.4123 19.3726C77.4123 19.5886 77.3835 19.8262 77.3259 20.0853C77.2827 20.3445 77.2323 20.5317 77.1747 20.6469H68.9027V19.1782H76.03L75.3605 20.1717C75.4325 19.999 75.4973 19.819 75.5549 19.6318C75.6125 19.4302 75.6413 19.2286 75.6413 19.0271C75.6413 18.5087 75.5477 18.0696 75.3605 17.7096C75.1877 17.3352 74.9285 17.0473 74.583 16.8457C74.2374 16.6441 73.7983 16.5433 73.2655 16.5433C72.7184 16.5433 72.2144 16.6585 71.7537 16.8889C71.3073 17.1048 70.9185 17.4072 70.5874 17.796C70.2562 18.1847 69.997 18.6383 69.8099 19.1566C69.6371 19.6606 69.5507 20.1933 69.5507 20.7549C69.5507 21.3452 69.6443 21.8708 69.8315 22.3315C70.0186 22.7923 70.3066 23.1522 70.6954 23.4114C71.0841 23.6562 71.5809 23.7786 72.1856 23.7786C72.8623 23.7786 73.4743 23.613 74.0214 23.2818C74.583 22.9363 75.0437 22.5043 75.4037 21.986L76.7644 22.8715C76.246 23.6058 75.5837 24.2105 74.7774 24.6857C73.971 25.1608 73.0351 25.3984 71.9696 25.3984Z" fill="black"/>
<path d="M85.8354 19.135C85.893 18.6887 85.8858 18.2783 85.8138 17.904C85.7418 17.5296 85.5835 17.2272 85.3387 16.9969C85.0939 16.7665 84.7339 16.6513 84.2588 16.6513C83.7692 16.6513 83.3157 16.7593 82.8981 16.9753C82.495 17.1768 82.1566 17.4576 81.883 17.8176C81.6239 18.1775 81.4583 18.5879 81.3863 19.0487L80.3064 25.1824H78.5786L80.3064 15.2474H82.0126L81.775 16.7377C82.1494 16.1905 82.5886 15.773 83.0925 15.485C83.5965 15.1826 84.1796 15.0315 84.8419 15.0315C85.5763 15.0315 86.1522 15.2114 86.5698 15.5714C87.0017 15.9314 87.2969 16.4065 87.4553 16.9969C87.628 17.5872 87.664 18.2279 87.5633 18.9191L86.4834 25.1824H84.7987L85.8354 19.135Z" fill="black"/>
<path d="M89.8697 15.2474H94.7076L94.4268 16.8673H89.5673L89.8697 15.2474ZM91.9647 11.7918H93.7141L91.3815 25.1824H89.7185L91.9647 11.7918Z" fill="black"/>
<path d="M47.8795 33.0421L48.2348 32.3489H50.8604L50.999 33.0421H47.8795ZM49.9245 30.1652L48.5207 32.5742L48.4254 32.7302L47.1776 34.8618H46.3457L50.1931 28.4755L51.8309 34.8618H51.0423L50.5397 32.7822L50.5051 32.6088L49.9245 30.1652Z" fill="black"/>
<path d="M55.8313 35.1218H56.5158C56.5043 35.3182 56.5331 35.4973 56.6025 35.6591C56.6718 35.8208 56.7844 35.9508 56.9404 36.049C57.1022 36.1472 57.3044 36.1963 57.547 36.1963C57.7839 36.1963 58.0092 36.1385 58.2229 36.023C58.4366 35.9075 58.6157 35.7399 58.7602 35.5204C58.9104 35.3067 59.0057 35.0583 59.0461 34.7752L59.722 30.8758H60.4066L59.7393 34.7752C59.6816 35.1796 59.5487 35.5377 59.3407 35.8497C59.1385 36.1617 58.8815 36.4043 58.5695 36.5776C58.2633 36.7567 57.9196 36.8462 57.5383 36.8462C57.1686 36.8462 56.848 36.7711 56.5765 36.6209C56.3107 36.4765 56.1114 36.2743 55.9786 36.0143C55.8457 35.7544 55.7966 35.4569 55.8313 35.1218ZM56.1345 32.8688C56.1923 32.476 56.3281 32.1236 56.5418 31.8116C56.7613 31.4939 57.03 31.2426 57.3477 31.0577C57.6712 30.8729 58.0207 30.7833 58.3962 30.7891C58.6619 30.7891 58.8844 30.8469 59.0634 30.9624C59.2483 31.078 59.3927 31.2339 59.4967 31.4304C59.6007 31.6268 59.6671 31.8492 59.696 32.0976C59.7307 32.3402 59.7307 32.5973 59.696 32.8688C59.6556 33.1519 59.5805 33.4205 59.4707 33.6747C59.361 33.9231 59.2223 34.1426 59.0548 34.3333C58.8872 34.5239 58.6908 34.6741 58.4655 34.7839C58.246 34.8878 58.0034 34.9398 57.7376 34.9398C57.3621 34.9398 57.0444 34.8474 56.7844 34.6625C56.5303 34.4719 56.3454 34.2206 56.2299 33.9087C56.1143 33.5909 56.0825 33.2443 56.1345 32.8688ZM56.8278 32.8688C56.7931 33.123 56.8104 33.3598 56.8798 33.5794C56.9491 33.7931 57.0675 33.9664 57.235 34.0993C57.4084 34.2264 57.6221 34.2899 57.8763 34.2899C58.0496 34.2899 58.2171 34.2553 58.3789 34.1859C58.5464 34.1108 58.6995 34.0098 58.8381 33.8827C58.9768 33.7498 59.0923 33.5967 59.1848 33.4234C59.283 33.2501 59.3494 33.0652 59.3841 32.8688C59.4129 32.6782 59.4101 32.4991 59.3754 32.3316C59.3407 32.164 59.2801 32.0138 59.1934 31.881C59.1068 31.7481 58.997 31.6441 58.8641 31.569C58.737 31.4881 58.5868 31.4448 58.4135 31.439C58.1594 31.4332 57.9196 31.4939 57.6943 31.621C57.469 31.7423 57.2784 31.9127 57.1224 32.1322C56.9722 32.3518 56.874 32.5973 56.8278 32.8688Z" fill="black"/>
<path d="M66.2361 34.9485C65.9068 34.9485 65.6179 34.8763 65.3695 34.7319C65.1211 34.5874 64.9276 34.3795 64.789 34.108C64.6503 33.8364 64.581 33.51 64.581 33.1288C64.581 32.8168 64.6359 32.5222 64.7456 32.2449C64.8612 31.9618 65.0171 31.7134 65.2136 31.4997C65.4158 31.2802 65.6497 31.1068 65.9155 30.9798C66.187 30.8527 66.4816 30.7891 66.7993 30.7891C67.1344 30.7891 67.4203 30.8556 67.6572 30.9884C67.8998 31.1213 68.0876 31.3177 68.2204 31.5777C68.3533 31.8319 68.4198 32.1496 68.4198 32.5309C68.4198 32.6175 68.4082 32.7128 68.3851 32.8168C68.3678 32.9208 68.3475 32.9959 68.3244 33.0421H65.0056V32.4529H67.8652L67.5965 32.8515C67.6254 32.7822 67.6514 32.7099 67.6745 32.6348C67.6976 32.554 67.7092 32.4731 67.7092 32.3922C67.7092 32.1842 67.6716 32.008 67.5965 31.8636C67.5272 31.7134 67.4232 31.5979 67.2846 31.517C67.1459 31.4361 66.9697 31.3957 66.756 31.3957C66.5365 31.3957 66.3343 31.4419 66.1494 31.5343C65.9703 31.621 65.8144 31.7423 65.6815 31.8983C65.5486 32.0543 65.4446 32.2362 65.3695 32.4442C65.3002 32.6464 65.2656 32.8601 65.2656 33.0854C65.2656 33.3223 65.3031 33.5332 65.3782 33.718C65.4533 33.9029 65.5688 34.0473 65.7248 34.1513C65.8808 34.2495 66.0801 34.2986 66.3227 34.2986C66.5942 34.2986 66.8398 34.2322 67.0593 34.0993C67.2846 33.9606 67.4694 33.7873 67.6139 33.5794L68.1598 33.9347C67.9518 34.2293 67.6861 34.4719 67.3626 34.6625C67.0391 34.8532 66.6636 34.9485 66.2361 34.9485Z" fill="black"/>
<path d="M75.4387 32.4355C75.4618 32.2565 75.4589 32.0918 75.43 31.9416C75.4012 31.7914 75.3376 31.6701 75.2394 31.5777C75.1412 31.4852 74.9968 31.439 74.8061 31.439C74.6097 31.439 74.4278 31.4823 74.2602 31.569C74.0985 31.6499 73.9627 31.7625 73.853 31.9069C73.749 32.0514 73.6825 32.216 73.6536 32.4009L73.2204 34.8618H72.5271L73.2204 30.8758H73.9049L73.8096 31.4737C73.9598 31.2542 74.136 31.0866 74.3382 30.9711C74.5404 30.8498 74.7744 30.7891 75.0401 30.7891C75.3347 30.7891 75.5658 30.8613 75.7333 31.0058C75.9066 31.1502 76.0251 31.3408 76.0886 31.5777C76.1579 31.8145 76.1724 32.0716 76.1319 32.3489L75.6987 34.8618H75.0228L75.4387 32.4355Z" fill="black"/>
<path d="M81.2947 32.8688C81.26 33.1114 81.2774 33.3425 81.3467 33.562C81.4218 33.7758 81.546 33.9491 81.7193 34.082C81.8926 34.2148 82.1092 34.2842 82.3692 34.2899C82.6754 34.2957 82.9584 34.2264 83.2184 34.082C83.4841 33.9375 83.6921 33.77 83.8423 33.5794L83.721 34.4372C83.5419 34.5932 83.3282 34.7174 83.0798 34.8099C82.8371 34.8965 82.5801 34.9398 82.3085 34.9398C81.9273 34.9398 81.598 34.8445 81.3207 34.6539C81.0492 34.4632 80.8499 34.2119 80.7228 33.9C80.5957 33.5823 80.5552 33.2385 80.6015 32.8688C80.6534 32.4818 80.7863 32.1322 81.0001 31.8203C81.2196 31.5083 81.494 31.2599 81.8233 31.0751C82.1526 30.8844 82.5136 30.7891 82.9064 30.7891C83.1606 30.7891 83.4004 30.8324 83.6257 30.9191C83.8568 31.0058 84.0474 31.1328 84.1976 31.3004L84.0763 32.1669C83.9838 31.9474 83.8279 31.7712 83.6083 31.6383C83.3946 31.5055 83.1433 31.439 82.8545 31.439C82.5887 31.439 82.3432 31.5055 82.1179 31.6383C81.8984 31.7654 81.7164 31.9358 81.572 32.1496C81.4276 32.3633 81.3351 32.6031 81.2947 32.8688Z" fill="black"/>
<path d="M92.0213 30.8758L88.4858 36.7596H87.6973L89.205 34.2726L88.3038 30.8758H89.0664L89.7943 33.9953L89.517 33.952L91.2327 30.8758H92.0213Z" fill="black"/>
<defs>
<clipPath id="clip0_3735_689">
<rect width="44.307" height="36.6918" fill="white" transform="translate(0 0.154297)"/>
</clipPath>
</defs>
</svg>
