<svg width="390" height="44" viewBox="0 0 390 44" fill="none" xmlns="http://www.w3.org/2000/svg">
<path opacity="0.35" fill-rule="evenodd" clip-rule="evenodd" d="M346 18C344.619 18 343.5 19.1193 343.5 20.5V26C343.5 27.3807 344.619 28.5 346 28.5H361.969H363C364.381 28.5 365.5 27.3807 365.5 26V20.5C365.5 19.1193 364.381 18 363 18H346ZM346.5 19C345.395 19 344.5 19.8954 344.5 21V25.5C344.5 26.6046 345.395 27.5 346.5 27.5H360.969H362.5C363.605 27.5 364.5 26.6046 364.5 25.5V21C364.5 19.8954 363.605 19 362.5 19H346.5Z" fill="black"/>
<path opacity="0.35" fill-rule="evenodd" clip-rule="evenodd" d="M366.5 25.374C367.363 25.152 368 24.3689 368 23.437C368 22.5051 367.363 21.722 366.5 21.5V25.374Z" fill="black"/>
<rect x="345.5" y="20" width="18" height="6.5" rx="1" fill="black"/>
<path fill-rule="evenodd" clip-rule="evenodd" d="M330.83 19.6079C333.046 19.608 335.177 20.4594 336.783 21.9862C336.904 22.1041 337.097 22.1026 337.216 21.9829L338.372 20.8162C338.433 20.7555 338.466 20.6733 338.466 20.5877C338.465 20.5021 338.431 20.4202 338.37 20.3602C334.155 16.3207 327.505 16.3207 323.29 20.3602C323.229 20.4202 323.194 20.502 323.193 20.5876C323.193 20.6732 323.226 20.7555 323.287 20.8162L324.443 21.9829C324.562 22.1028 324.755 22.1043 324.876 21.9862C326.482 20.4593 328.614 19.6079 330.83 19.6079ZM330.831 23.4035C332.048 23.4034 333.222 23.8559 334.125 24.6731C334.247 24.7891 334.439 24.7866 334.558 24.6675L335.713 23.5008C335.774 23.4396 335.807 23.3566 335.806 23.2703C335.806 23.1841 335.77 23.1017 335.708 23.0418C332.96 20.4854 328.704 20.4854 325.956 23.0418C325.894 23.1017 325.858 23.1841 325.857 23.2704C325.857 23.3567 325.89 23.4397 325.951 23.5008L327.106 24.6675C327.225 24.7866 327.417 24.7891 327.539 24.6731C328.441 23.8565 329.614 23.404 330.831 23.4035ZM333.05 26.188C333.112 26.1274 333.146 26.044 333.144 25.9575C333.142 25.871 333.105 25.7891 333.04 25.731C331.765 24.6522 329.897 24.6522 328.621 25.731C328.557 25.789 328.519 25.8709 328.518 25.9575C328.516 26.044 328.55 26.1274 328.611 26.188L330.609 28.2037C330.668 28.2629 330.748 28.2963 330.831 28.2963C330.914 28.2963 330.994 28.2629 331.052 28.2037L333.05 26.188Z" fill="black"/>
<path fill-rule="evenodd" clip-rule="evenodd" d="M302.166 24.3332H303.166C303.718 24.3332 304.166 24.7809 304.166 25.3332V27.3332C304.166 27.8855 303.718 28.3332 303.166 28.3332H302.166C301.614 28.3332 301.166 27.8855 301.166 27.3332V25.3332C301.166 24.7809 301.614 24.3332 302.166 24.3332ZM306.832 22.333H307.832C308.384 22.333 308.832 22.7807 308.832 23.333V27.333C308.832 27.8853 308.384 28.333 307.832 28.333H306.832C306.28 28.333 305.832 27.8853 305.832 27.333V23.333C305.832 22.7807 306.28 22.333 306.832 22.333ZM311.5 20H312.5C313.052 20 313.5 20.4477 313.5 21V27.3333C313.5 27.8856 313.052 28.3333 312.5 28.3333H311.5C310.948 28.3333 310.5 27.8856 310.5 27.3333V21C310.5 20.4477 310.948 20 311.5 20ZM316.166 17.6665H317.166C317.718 17.6665 318.166 18.1142 318.166 18.6665V27.3332C318.166 27.8855 317.718 28.3332 317.166 28.3332H316.166C315.614 28.3332 315.166 27.8855 315.166 27.3332V18.6665C315.166 18.1142 315.614 17.6665 316.166 17.6665Z" fill="black"/>
<g clip-path="url(#clip0_3735_667)">
<path d="M44.6341 28.2563C47.3221 28.2563 48.9187 26.1543 48.9187 22.5947C48.9187 19.1011 47.2195 17.1675 44.6927 17.1675C42.3929 17.1675 40.7669 18.7129 40.7669 20.8809C40.7669 22.9097 42.2317 24.3892 44.2459 24.3892C45.4837 24.3892 46.4871 23.8179 46.9852 22.8145H47.1097C47.0877 25.2607 46.2015 26.6743 44.6561 26.6743C43.7479 26.6743 43.0228 26.1836 42.7957 25.3926H40.9134C41.221 27.1211 42.7005 28.2563 44.6341 28.2563ZM44.7 22.895C43.4695 22.895 42.6199 22.0454 42.6199 20.8223C42.6199 19.6431 43.5135 18.7422 44.7073 18.7422C45.9012 18.7422 46.7947 19.6577 46.7947 20.8589C46.7947 22.0381 45.9231 22.895 44.7 22.895ZM51.9366 26.5425C52.6324 26.5425 53.1085 26.0444 53.1085 25.3853C53.1085 24.7188 52.6324 24.228 51.9366 24.228C51.2481 24.228 50.7647 24.7188 50.7647 25.3853C50.7647 26.0444 51.2481 26.5425 51.9366 26.5425ZM51.9366 21.1958C52.6324 21.1958 53.1085 20.7051 53.1085 20.0459C53.1085 19.3794 52.6324 18.8887 51.9366 18.8887C51.2481 18.8887 50.7647 19.3794 50.7647 20.0459C50.7647 20.7051 51.2481 21.1958 51.9366 21.1958ZM60.1107 28H61.9198V25.9858H63.348V24.3892H61.9198V17.4312H59.2538C57.8183 19.6138 56.3168 22.0234 54.9472 24.4111V25.9858H60.1107V28ZM56.6977 24.3306C57.7304 22.5508 58.9535 20.6099 60.0375 18.9692H60.14V24.4331H56.6977V24.3306ZM67.3767 28H69.2663V17.4312H67.384L64.6228 19.3647V21.1812L67.2521 19.3354H67.3767V28Z" fill="black"/>
</g>
<defs>
<clipPath id="clip0_3735_667">
<rect width="54" height="18" fill="white" transform="translate(28.5 14)"/>
</clipPath>
</defs>
</svg>
